<?xml version="1.0" encoding="utf-8"?>
<!-- Generator: Adobe Illustrator 26.0.3, SVG Export Plug-In . SVG Version: 6.00 Build 0)  -->
<svg version="1.0" id="katman_1" xmlns="http://www.w3.org/2000/svg" xmlns:xlink="http://www.w3.org/1999/xlink" x="0px" y="0px"
	 viewBox="0 0 600 450" style="enable-background:new 0 0 600 450;" xml:space="preserve">
<style type="text/css">
	.st0{fill-rule:evenodd;clip-rule:evenodd;}
</style>
<g id="TuneIn-Marquee-Page-1">
	<g id="TuneIn-Marquee">
		<path id="TuneIn_Marquee" class="st0" d="M460.1,179.1c0-0.9-0.9-1.8-1.8-1.8h-7.9c-0.9,0-1.8,0.9-1.8,1.8v29.8
			c0,0.4-0.4,0.4-0.9,0l-11-30.3c0-0.9-0.9-1.3-2.2-1.3h-9.6c-0.9,0-1.8,0.9-1.8,1.8v52.6c0,0.9,0.9,1.8,1.8,1.8h8.8
			c0.9,0,1.8-0.9,1.8-1.8v-27.6c0-0.4,0.4-0.4,0.9,0l11,28.1c0,0.4,0.9,1.3,2.2,1.3h9.2c0.9,0,1.8-0.9,1.8-1.8L460.1,179.1
			L460.1,179.1z M415.4,223.8c0-0.9-0.9-1.8-1.8-1.8h-6.6c-0.4,0-0.9-0.4-0.9-0.9v-32.9c0-0.4,0.4-0.9,0.9-0.9h6.1
			c0.9,0,1.8-0.9,1.8-1.8v-6.6c0-0.9-0.9-1.8-1.8-1.8h-24.6c-0.9,0-1.8,0.9-1.8,1.8v7.5c0,0.9,0.9,1.8,1.8,1.8h5.7
			c0.4,0,0.9,0.4,0.9,0.9v32.9c0,0.4-0.4,0.9-0.9,0.9h-6.6c-0.9,0-1.8,0.9-1.8,1.8v7.5c0,0.9,0.9,1.8,1.8,1.8h26.3
			c0.9,0,1.8-0.9,1.8-1.8L415.4,223.8L415.4,223.8z M344,189.2H113.8c-0.4,0-0.9,0.4-0.9,0.9v109.6c0,0.4,0.4,0.9,0.9,0.9h229.3
			c0.4,0,0.9-0.4,0.9-0.9V189.2z M499.6,143.6v123.6c0,3.5-2.6,6.1-6.1,6.1H355.8v33.8c0,3.5-2.6,6.1-6.1,6.1H106.8
			c-3.5-0.4-6.1-3.1-6.1-6.6V183.5c0-3.5,2.6-6.1,6.1-6.1H344v-33.8c0-3.5,2.6-6.1,6.1-6.1h143.4C497,137.5,499.6,140.1,499.6,143.6
			z M308.9,262H290c-0.4,0-0.9-0.4-0.9-0.9v-9.6c0-0.4,0.4-0.9,0.9-0.9h18c0.9,0,1.8-0.9,1.8-1.8v-7.9c0-0.9-0.9-1.8-1.8-1.8h-18
			c-0.4,0-0.9-0.4-0.9-0.9v-9.6c0-0.4,0.4-0.9,0.9-0.9h18.4c0.9,0,1.8-0.9,1.8-1.8v-7.9c0-0.9-0.9-1.8-1.8-1.8h-28.9
			c-0.9,0-1.8,0.9-1.8,1.8v52.6c0,0.9,0.9,1.8,1.8,1.8h29.4c0.9,0,1.8-0.9,1.8-1.8v-7.9C310.2,262.4,309.8,262,308.9,262z
			 M267.2,217.3h-7.9c-0.9,0-1.8,0.9-1.8,1.8v29.8c0,0.4-0.4,0.4-0.9,0l-11-30.3c0-0.9-0.9-1.3-2.2-1.3h-9.6c-0.9,0-1.8,0.9-1.8,1.8
			v52.6c0,0.9,0.9,1.8,1.8,1.8h7.9c0.9,0,1.8-0.9,1.8-1.8V244c0-0.4,0.4-0.4,0.9,0l11,28.1c0,0.4,0.9,1.3,2.2,1.3h9.6
			c0.9,0,1.8-0.9,1.8-1.8V219C269,218.1,268.1,217.3,267.2,217.3z M222.5,217.3h-7.9c-0.9,0-1.8,0.9-1.8,1.8v37.3
			c0,3.5-2.6,6.6-7.9,6.6c-4.8,0-7.5-2.6-7.5-6.6V219c0-0.9-0.9-1.8-1.8-1.8h-7.9c-0.9,0-1.8,0.9-1.8,1.8v37.3
			c0,9.6,7.9,17.5,18.9,17.5s18.9-7.9,18.9-17.5V219C223.8,218.1,223.4,217.3,222.5,217.3z M178.7,218.6v7.9c0,0.9-0.9,1.8-1.8,1.8
			h-10.1c-0.4,0-0.9,0.4-0.9,0.9v42.1c0,0.9-0.9,1.8-1.8,1.8h-7.9c-0.9,0-1.8-0.9-1.8-1.8v-42.1c0-0.4-0.4-0.9-0.9-0.9h-9.2
			c-0.9,0-1.8-0.9-1.8-1.8v-7.9c0-0.9,0.9-1.8,1.8-1.8h32.9C177.8,217.3,178.7,218.1,178.7,218.6L178.7,218.6z"/>
	</g>
</g>
</svg>
